<svg xmlns="http://www.w3.org/2000/svg" width="32" height="32" viewBox="0 0 32 32">
  <path id="dribbble" d="M21.827,30.888c.027-.008.052-.019.079-.028C38.208,24.391,33.7,0,16.016,0a15.995,15.995,0,1,0,5.811,30.888ZM7.048,26.741c1.137-1.909,4.817-7.295,11.1-9.153a33.66,33.66,0,0,1,2.325,11.671A13.937,13.937,0,0,1,7.048,26.741Zm15.391,1.684a35.859,35.859,0,0,0-2.282-11.288A18.158,18.158,0,0,1,29.8,18.453,14.031,14.031,0,0,1,22.439,28.425Zm7.57-12.039a19.441,19.441,0,0,0-10.622-1.112c-.474-1.066-.972-2.092-1.5-3.036a26.7,26.7,0,0,0,8.725-5.372A13.809,13.809,0,0,1,30.009,16.385ZM25.191,5.442a25.7,25.7,0,0,1-8.355,5.026A37.42,37.42,0,0,0,10.7,3.053,13.943,13.943,0,0,1,25.191,5.442ZM8.786,4.03a35.2,35.2,0,0,1,6.07,7.142A44.111,44.111,0,0,1,2.3,13.137,14.025,14.025,0,0,1,8.786,4.03ZM2.045,15.144a46.133,46.133,0,0,0,13.892-2.2c.5.879.978,1.836,1.436,2.83-6.32,2.01-10.269,7.2-11.781,9.544A13.806,13.806,0,0,1,2.045,15.144Z" fill="#000"/>
</svg>
