<?xml version="1.0" encoding="UTF-8" standalone="no"?><!-- Generator: Gravit.io --><svg xmlns="http://www.w3.org/2000/svg" xmlns:xlink="http://www.w3.org/1999/xlink" style="isolation:isolate" viewBox="0 0 1587.402 892.913" width="1587.402pt" height="892.913pt"><defs><clipPath id="_clipPath_N9OQx6bVvBzqmSCqiuEDDp93k8iaiSTo"><rect width="1587.402" height="892.913"/></clipPath></defs><g clip-path="url(#_clipPath_N9OQx6bVvBzqmSCqiuEDDp93k8iaiSTo)"><rect width="1587.402" height="892.913" style="fill:rgb(0,12,32)"/><path d="M 587.87 324.392 L 587.87 324.392 C 594.424 324.392 599.746 333.229 599.746 344.114 L 599.746 450.786 C 599.746 461.671 594.424 470.508 587.87 470.508 L 587.87 470.508 C 581.315 470.508 575.993 461.671 575.993 450.786 L 575.993 344.114 C 575.993 333.229 581.315 324.392 587.87 324.392 Z" style="stroke:none;fill:#74DDDD;stroke-miterlimit:10;"/><path d="M 1002.84 324.392 L 1002.84 324.392 C 1009.395 324.392 1014.716 333.229 1014.716 344.114 L 1014.716 450.786 C 1014.716 461.671 1009.395 470.508 1002.84 470.508 L 1002.84 470.508 C 996.285 470.508 990.963 461.671 990.963 450.786 L 990.963 344.114 C 990.963 333.229 996.285 324.392 1002.84 324.392 Z" style="stroke:none;fill:#74DDDD;stroke-miterlimit:10;"/><g><path d=" M 1041.764 321.304 C 1039.919 235.848 970.075 167.009 884.229 166.797 L 884.229 226.17 C 937.306 226.378 980.545 268.619 982.365 321.304 L 1027.066 321.304 L 1041.764 321.304 L 1041.764 321.304 Z " fill="rgb(255,70,70)"/><path d="M 1001.906 301.629 L 1001.906 301.629 C 1009.499 293.095 1022.592 292.331 1031.127 299.924 L 1051.159 317.748 C 1059.693 325.341 1060.457 338.434 1052.864 346.968 L 1052.864 346.968 C 1045.271 355.503 1032.178 356.267 1023.643 348.674 L 1003.611 330.85 C 995.077 323.257 994.313 310.164 1001.906 301.629 Z" style="stroke:none;fill:#EA3E3E;stroke-miterlimit:10;"/><path d="M 990.062 304.409 L 990.062 304.409 C 996.146 305.101 1000.523 310.601 999.832 316.685 L 998.208 330.965 C 997.516 337.048 992.015 341.425 985.932 340.734 L 985.932 340.734 C 979.848 340.042 975.471 334.541 976.163 328.458 L 977.786 314.178 C 978.478 308.094 983.979 303.717 990.062 304.409 Z" style="stroke:none;fill:#EA3E3E;stroke-miterlimit:10;"/></g><g><path d=" M 545.637 321.304 C 547.483 235.848 617.326 167.009 703.173 166.797 L 703.173 226.17 C 650.095 226.378 606.857 268.619 605.037 321.304 L 560.335 321.304 L 545.637 321.304 L 545.637 321.304 Z " fill="rgb(255,70,70)"/><path d="M 585.496 301.629 L 585.496 301.629 C 577.903 293.095 564.809 292.331 556.275 299.924 L 536.243 317.748 C 527.708 325.341 526.944 338.434 534.537 346.968 L 534.537 346.968 C 542.131 355.503 555.224 356.267 563.758 348.674 L 583.791 330.85 C 592.325 323.257 593.089 310.164 585.496 301.629 Z" style="stroke:none;fill:#EA3E3E;stroke-miterlimit:10;"/><path d="M 597.339 304.409 L 597.339 304.409 C 591.256 305.101 586.878 310.601 587.57 316.685 L 589.194 330.965 C 589.886 337.048 595.386 341.425 601.47 340.734 L 601.47 340.734 C 607.553 340.042 611.931 334.541 611.239 328.458 L 609.615 314.178 C 608.923 308.094 603.423 303.717 597.339 304.409 Z" style="stroke:none;fill:#EA3E3E;stroke-miterlimit:10;"/></g><path d=" M 896.414 196.387 C 896.414 276.539 848.391 341.613 789.24 341.613 C 730.089 341.613 682.066 276.539 682.066 196.387" fill="rgb(255,183,0)"/><path d="M 790.06 191.737 L 790.06 191.737 C 829.243 191.737 861.054 223.548 861.054 262.731 L 861.054 377.899 C 861.054 417.082 829.243 448.893 790.06 448.893 L 790.06 448.893 C 750.877 448.893 719.066 417.082 719.066 377.899 L 719.066 262.731 C 719.066 223.548 750.877 191.737 790.06 191.737 Z" style="stroke:none;fill:#EA3E3E;stroke-miterlimit:10;"/><path d=" M 906.017 166.348 C 906.017 231.239 853.334 283.922 788.443 283.922 C 723.552 283.922 670.869 231.239 670.869 166.348" fill="rgb(234,62,62)"/><path d="M 788.443 68.079 L 788.443 68.079 C 811.637 68.079 830.467 88.178 830.467 112.935 L 830.467 144.274 C 830.467 169.031 811.637 189.13 788.443 189.13 L 788.443 189.13 C 765.249 189.13 746.419 169.031 746.419 144.274 L 746.419 112.935 C 746.419 88.178 765.249 68.079 788.443 68.079 Z" style="stroke:none;fill:#FF4646;stroke-miterlimit:10;"/><clipPath id="_clipPath_wjpXEIKNhhHYvLuAwZXlJU5m8l34al98"><path d="M 788.443 68.079 L 788.443 68.079 C 811.637 68.079 830.467 88.178 830.467 112.935 L 830.467 144.274 C 830.467 169.031 811.637 189.13 788.443 189.13 L 788.443 189.13 C 765.249 189.13 746.419 169.031 746.419 144.274 L 746.419 112.935 C 746.419 88.178 765.249 68.079 788.443 68.079 Z" style="stroke:none;fill:#FF4646;stroke-miterlimit:10;"/></clipPath><g clip-path="url(#_clipPath_wjpXEIKNhhHYvLuAwZXlJU5m8l34al98)"><path d="M 788.443 85.31 L 788.443 85.31 C 811.637 85.31 830.467 104.681 830.467 128.54 L 830.467 147.801 C 830.467 171.661 811.637 191.031 788.443 191.031 L 788.443 191.031 C 765.249 191.031 746.419 171.661 746.419 147.801 L 746.419 128.54 C 746.419 104.681 765.249 85.31 788.443 85.31 Z" style="stroke:none;fill:#FF9900;stroke-miterlimit:10;"/><clipPath id="_clipPath_7qgJT02oQJprfbddjGctAZcINNnl3kHJ"><path d="M 788.443 85.31 L 788.443 85.31 C 811.637 85.31 830.467 104.681 830.467 128.54 L 830.467 147.801 C 830.467 171.661 811.637 191.031 788.443 191.031 L 788.443 191.031 C 765.249 191.031 746.419 171.661 746.419 147.801 L 746.419 128.54 C 746.419 104.681 765.249 85.31 788.443 85.31 Z" style="stroke:none;fill:#FF9900;stroke-miterlimit:10;"/></clipPath><g clip-path="url(#_clipPath_7qgJT02oQJprfbddjGctAZcINNnl3kHJ)"><path d="M 764.852 113.789 L 772.725 116.793 C 774.726 117.556 775.913 119.32 775.376 120.729 L 775.376 120.729 C 774.838 122.138 772.777 122.662 770.777 121.898 L 762.903 118.894 C 760.903 118.13 759.715 116.367 760.253 114.958 L 760.253 114.958 C 760.79 113.549 762.851 113.025 764.852 113.789 Z" style="stroke:none;fill:#FF4646;stroke-miterlimit:10;"/><path d="M 804.583 116.787 L 812.674 114.43 C 814.73 113.831 816.741 114.52 817.163 115.968 L 817.163 115.968 C 817.584 117.416 816.258 119.077 814.202 119.676 L 806.111 122.033 C 804.055 122.632 802.044 121.943 801.622 120.495 L 801.622 120.495 C 801.2 119.047 802.527 117.386 804.583 116.787 Z" style="stroke:none;fill:#FF4646;stroke-miterlimit:10;"/><circle vector-effect="non-scaling-stroke" cx="790.029019106357" cy="56.44977708037563" r="63.23447378458695" fill="rgb(255,183,0)"/></g><circle vector-effect="non-scaling-stroke" cx="734.7897086738445" cy="176.1790001709415" r="41.7598614752967" fill="rgb(255,70,70)"/><circle vector-effect="non-scaling-stroke" cx="842.0966944901131" cy="176.1790001709415" r="41.7598614752967" fill="rgb(255,70,70)"/></g><path d="M 788.443 81.449 L 788.443 81.449 C 811.637 81.449 830.467 101.549 830.467 126.305 L 830.467 157.644 C 830.467 182.401 811.637 202.5 788.443 202.5 L 788.443 202.5 C 765.249 202.5 746.419 182.401 746.419 157.644 L 746.419 126.305 C 746.419 101.549 765.249 81.449 788.443 81.449 Z" style="stroke:none;fill:#D74747;stroke-miterlimit:10;"/><path d="M 788.443 68.079 L 788.443 68.079 C 811.637 68.079 830.467 88.178 830.467 112.935 L 830.467 144.274 C 830.467 169.031 811.637 189.13 788.443 189.13 L 788.443 189.13 C 765.249 189.13 746.419 169.031 746.419 144.274 L 746.419 112.935 C 746.419 88.178 765.249 68.079 788.443 68.079 Z" style="stroke:none;fill:#FF4646;stroke-miterlimit:10;"/><clipPath id="_clipPath_yTes78C9ZPdmj2kdQeHoIcyOWafS711u"><path d="M 788.443 68.079 L 788.443 68.079 C 811.637 68.079 830.467 88.178 830.467 112.935 L 830.467 144.274 C 830.467 169.031 811.637 189.13 788.443 189.13 L 788.443 189.13 C 765.249 189.13 746.419 169.031 746.419 144.274 L 746.419 112.935 C 746.419 88.178 765.249 68.079 788.443 68.079 Z" style="stroke:none;fill:#FF4646;stroke-miterlimit:10;"/></clipPath><g clip-path="url(#_clipPath_yTes78C9ZPdmj2kdQeHoIcyOWafS711u)"><path d="M 788.443 85.31 L 788.443 85.31 C 811.637 85.31 830.467 104.681 830.467 128.54 L 830.467 147.801 C 830.467 171.661 811.637 191.031 788.443 191.031 L 788.443 191.031 C 765.249 191.031 746.419 171.661 746.419 147.801 L 746.419 128.54 C 746.419 104.681 765.249 85.31 788.443 85.31 Z" style="stroke:none;fill:#FF9900;stroke-miterlimit:10;"/><clipPath id="_clipPath_qHVHjvPcVmXA50FSn2VLv9PRSQnXqz2y"><path d="M 788.443 85.31 L 788.443 85.31 C 811.637 85.31 830.467 104.681 830.467 128.54 L 830.467 147.801 C 830.467 171.661 811.637 191.031 788.443 191.031 L 788.443 191.031 C 765.249 191.031 746.419 171.661 746.419 147.801 L 746.419 128.54 C 746.419 104.681 765.249 85.31 788.443 85.31 Z" style="stroke:none;fill:#FF9900;stroke-miterlimit:10;"/></clipPath><g clip-path="url(#_clipPath_qHVHjvPcVmXA50FSn2VLv9PRSQnXqz2y)"><path d="M 764.852 113.789 L 772.725 116.793 C 774.726 117.556 775.913 119.32 775.376 120.729 L 775.376 120.729 C 774.838 122.138 772.777 122.662 770.777 121.898 L 762.903 118.894 C 760.903 118.13 759.715 116.367 760.253 114.958 L 760.253 114.958 C 760.79 113.549 762.851 113.025 764.852 113.789 Z" style="stroke:none;fill:#FF4646;stroke-miterlimit:10;"/><path d="M 804.583 116.787 L 812.674 114.43 C 814.73 113.831 816.741 114.52 817.163 115.968 L 817.163 115.968 C 817.584 117.416 816.258 119.077 814.202 119.676 L 806.111 122.033 C 804.055 122.632 802.044 121.943 801.622 120.495 L 801.622 120.495 C 801.2 119.047 802.527 117.386 804.583 116.787 Z" style="stroke:none;fill:#FF4646;stroke-miterlimit:10;"/><circle vector-effect="non-scaling-stroke" cx="790.029019106357" cy="56.44977708037563" r="63.23447378458695" fill="rgb(255,183,0)"/></g><circle vector-effect="non-scaling-stroke" cx="734.7897086738445" cy="176.1790001709415" r="41.7598614752967" fill="rgb(255,70,70)"/><circle vector-effect="non-scaling-stroke" cx="842.0966944901131" cy="176.1790001709415" r="41.7598614752967" fill="rgb(255,70,70)"/></g><rect x="776.55" y="70.722" width="23.787" height="31.716" transform="matrix(1,0,0,1,0,0)" fill="rgb(255,70,70)"/><rect x="771.264" y="166.135" width="34.359" height="10.044" transform="matrix(1,0,0,1,0,0)" fill="rgb(255,70,70)"/><path d=" M 720.263 154.458 C 701.251 137.896 674.107 137.789 659.505 154.287 C 644.82 170.88 648.347 198.023 667.376 214.864 C 667.507 214.98 667.639 215.096 667.773 215.206 L 720.263 154.458 L 720.263 154.458 Z " fill="rgb(234,62,62)"/><circle vector-effect="non-scaling-stroke" cx="789.9654464862044" cy="236.44733196572193" r="21.866203201658777" fill="rgb(255,255,255)"/><circle vector-effect="non-scaling-stroke" cx="789.9654464862043" cy="236.44733196572187" r="13.536221029598323" fill="rgb(116,221,221)"/><path d="M 728.871 642.569 L 728.871 642.569 C 744.854 642.569 757.83 655.545 757.83 671.528 L 757.83 701.842 C 757.83 717.825 744.854 730.802 728.871 730.802 L 728.871 730.802 C 712.888 730.802 699.911 717.825 699.911 701.842 L 699.911 671.528 C 699.911 655.545 712.888 642.569 728.871 642.569 Z" style="stroke:none;fill:#74DDDD;stroke-miterlimit:10;"/><path d="M 724.792 320.315 L 724.792 320.315 C 746.56 320.315 764.233 337.988 764.233 359.756 L 764.233 446.527 C 764.233 468.295 746.56 485.968 724.792 485.968 L 724.792 485.968 C 703.024 485.968 685.351 468.295 685.351 446.527 L 685.351 359.756 C 685.351 337.988 703.024 320.315 724.792 320.315 Z" style="stroke:none;fill:#EA3E3E;stroke-miterlimit:10;"/><path d="M 850.512 315.195 L 850.512 315.195 C 872.281 315.195 889.954 332.868 889.954 354.636 L 889.954 441.407 C 889.954 463.175 872.281 480.848 850.512 480.848 L 850.512 480.848 C 828.744 480.848 811.071 463.175 811.071 441.407 L 811.071 354.636 C 811.071 332.868 828.744 315.195 850.512 315.195 Z" style="stroke:none;fill:#EA3E3E;stroke-miterlimit:10;"/><path d="M 727.947 509.633 L 727.947 509.633 C 749.715 509.633 767.388 527.306 767.388 549.074 L 767.388 635.845 C 767.388 657.613 749.715 675.286 727.947 675.286 L 727.947 675.286 C 706.179 675.286 688.506 657.613 688.506 635.845 L 688.506 549.074 C 688.506 527.306 706.179 509.633 727.947 509.633 Z" style="stroke:none;fill:#EA3E3E;stroke-miterlimit:10;"/><clipPath id="_clipPath_PhKrzGfjk0Dyq3DWjr5tcjMXsS9tcrnI"><path d="M 727.947 509.633 L 727.947 509.633 C 749.715 509.633 767.388 527.306 767.388 549.074 L 767.388 635.845 C 767.388 657.613 749.715 675.286 727.947 675.286 L 727.947 675.286 C 706.179 675.286 688.506 657.613 688.506 635.845 L 688.506 549.074 C 688.506 527.306 706.179 509.633 727.947 509.633 Z" style="stroke:none;fill:#EA3E3E;stroke-miterlimit:10;"/></clipPath><g clip-path="url(#_clipPath_PhKrzGfjk0Dyq3DWjr5tcjMXsS9tcrnI)"><rect x="716.518" y="630.794" width="21.379" height="60.042" transform="matrix(1,0,0,1,0,0)" fill="rgb(255,153,0)"/></g><path d="M 854.247 642.569 L 854.247 642.569 C 870.231 642.569 883.207 655.545 883.207 671.528 L 883.207 701.842 C 883.207 717.825 870.231 730.802 854.247 730.802 L 854.247 730.802 C 838.264 730.802 825.288 717.825 825.288 701.842 L 825.288 671.528 C 825.288 655.545 838.264 642.569 854.247 642.569 Z" style="stroke:none;fill:#74DDDD;stroke-miterlimit:10;"/><path d=" M 909.509 214.579 C 928.262 197.724 931.671 170.794 917.073 154.293 C 902.391 137.698 875.02 137.895 855.988 154.733 C 855.857 154.849 855.726 154.966 855.601 155.086 L 909.509 214.579 L 909.509 214.579 Z " fill="rgb(234,62,62)"/><path d="M 853.668 504.513 L 853.668 504.513 C 875.436 504.513 893.109 522.186 893.109 543.954 L 893.109 630.724 C 893.109 652.493 875.436 670.166 853.668 670.166 L 853.668 670.166 C 831.899 670.166 814.226 652.493 814.226 630.724 L 814.226 543.954 C 814.226 522.186 831.899 504.513 853.668 504.513 Z" style="stroke:none;fill:#EA3E3E;stroke-miterlimit:10;"/><clipPath id="_clipPath_MD9okJaKgVtUfblZ3jG9zYA045yGl3r1"><path d="M 853.668 504.513 L 853.668 504.513 C 875.436 504.513 893.109 522.186 893.109 543.954 L 893.109 630.724 C 893.109 652.493 875.436 670.166 853.668 670.166 L 853.668 670.166 C 831.899 670.166 814.226 652.493 814.226 630.724 L 814.226 543.954 C 814.226 522.186 831.899 504.513 853.668 504.513 Z" style="stroke:none;fill:#EA3E3E;stroke-miterlimit:10;"/></clipPath><g clip-path="url(#_clipPath_MD9okJaKgVtUfblZ3jG9zYA045yGl3r1)"><rect x="842.238" y="625.673" width="21.379" height="60.042" transform="matrix(1,0,0,1,0,0)" fill="rgb(255,153,0)"/></g><rect x="705.387" y="429.173" width="37.864" height="140.411" transform="matrix(1,0,0,1,0,0)" fill="rgb(234,62,62)"/><rect x="831.107" y="424.053" width="37.864" height="140.411" transform="matrix(1,0,0,1,0,0)" fill="rgb(234,62,62)"/><rect x="712.616" y="642.569" width="30.663" height="55.193" transform="matrix(1,0,0,1,0,0)" fill="rgb(116,221,221)"/><rect x="837.993" y="642.569" width="30.663" height="55.193" transform="matrix(1,0,0,1,0,0)" fill="rgb(116,221,221)"/><ellipse vector-effect="non-scaling-stroke" cx="587.8217138115704" cy="497.2532411048331" rx="11.754077847078634" ry="17.886640202076308" fill="rgb(116,221,221)"/><ellipse vector-effect="non-scaling-stroke" cx="728.8706479765151" cy="756.8650474663981" rx="11.754077847078634" ry="17.886640202076364" fill="rgb(116,221,221)"/><ellipse vector-effect="non-scaling-stroke" cx="851.5218950764674" cy="756.8650474663981" rx="11.754077847078634" ry="17.886640202076364" fill="rgb(116,221,221)"/><ellipse vector-effect="non-scaling-stroke" cx="1002.7917664997417" cy="497.2532411048331" rx="11.754077847078634" ry="17.886640202076308" fill="rgb(116,221,221)"/><circle vector-effect="non-scaling-stroke" cx="587.8217138115706" cy="532.004427783153" r="10.561635166940164" fill="rgb(116,221,221)"/><circle vector-effect="non-scaling-stroke" cx="728.8706479765153" cy="791.6162341447181" r="10.561635166940164" fill="rgb(116,221,221)"/><circle vector-effect="non-scaling-stroke" cx="851.5218950764679" cy="791.6162341447181" r="10.561635166940164" fill="rgb(116,221,221)"/><circle vector-effect="non-scaling-stroke" cx="1002.7917664997422" cy="532.004427783153" r="10.561635166940164" fill="rgb(116,221,221)"/><circle vector-effect="non-scaling-stroke" cx="589.1845054460144" cy="559.2602604720311" r="5.962213400692235" fill="rgb(116,221,221)"/><circle vector-effect="non-scaling-stroke" cx="730.2334396109591" cy="818.8720668335959" r="5.962213400692235" fill="rgb(116,221,221)"/><circle vector-effect="non-scaling-stroke" cx="852.8846867109112" cy="818.8720668335959" r="5.962213400692235" fill="rgb(116,221,221)"/><circle vector-effect="non-scaling-stroke" cx="1004.1545581341857" cy="559.2602604720311" r="5.962213400692235" fill="rgb(116,221,221)"/><ellipse vector-effect="non-scaling-stroke" cx="587.8217138115704" cy="468.63461678151106" rx="12.903933288640701" ry="17.886640202076308" fill="rgb(116,221,221)"/><ellipse vector-effect="non-scaling-stroke" cx="1002.7917664997422" cy="468.63461678151106" rx="12.903933288640701" ry="17.886640202076308" fill="rgb(116,221,221)"/><path d=" M 367.402 84.039 L 368.904 73.417 L 361.005 66.159 L 371.571 64.304 L 376.033 54.55 L 381.062 64.025 L 391.718 65.255 L 384.26 72.965 L 386.384 83.48 L 376.746 78.77 L 367.402 84.039 Z " fill="rgb(255,255,255)"/><path d=" M 1266.5 163.455 L 1259.636 164.452 L 1256.566 170.672 L 1253.496 164.452 L 1246.632 163.455 L 1251.599 158.613 L 1250.426 151.777 L 1256.566 155.004 L 1262.706 151.777 L 1261.533 158.613 L 1266.5 163.455 Z " fill="rgb(255,255,255)"/><path d=" M 1417.833 329.455 L 1410.969 330.452 L 1407.899 336.672 L 1404.83 330.452 L 1397.965 329.455 L 1402.932 324.613 L 1401.76 317.777 L 1407.899 321.004 L 1414.039 317.777 L 1412.866 324.613 L 1417.833 329.455 Z " fill="rgb(255,255,255)"/><path d=" M 352.167 372.455 L 345.302 373.452 L 342.233 379.672 L 339.163 373.452 L 332.299 372.455 L 337.266 367.613 L 336.093 360.777 L 342.233 364.004 L 348.372 360.777 L 347.2 367.613 L 352.167 372.455 Z " fill="rgb(255,255,255)"/><path d=" M 1275.786 611.33 L 1269.906 604.123 L 1260.636 604.881 L 1265.673 597.062 L 1262.087 588.48 L 1271.08 590.854 L 1278.134 584.792 L 1278.655 594.079 L 1286.6 598.914 L 1277.929 602.279 L 1275.786 611.33 Z " fill="rgb(255,255,255)"/><path d=" M 275.758 678.556 L 265.349 680.068 L 260.695 689.499 L 256.04 680.068 L 245.632 678.556 L 253.163 671.214 L 251.385 660.848 L 260.695 665.743 L 270.004 660.848 L 268.226 671.214 L 275.758 678.556 Z " fill="rgb(255,255,255)"/><text transform="matrix(1,0,0,1,775.201,454.215)" style="font-family:'Open Sans';font-weight:400;font-size:20px;font-style:normal;fill:#000000;stroke:none;">105</text></g></svg>