<svg xmlns="http://www.w3.org/2000/svg" width="32" height="32" viewBox="0 0 32 32">
  <path id="Path_3" data-name="Path 3" d="M32,51.788a11.743,11.743,0,0,1-3.78,1.275A7.951,7.951,0,0,0,31.106,48.6a11.744,11.744,0,0,1-4.16,1.954A6.078,6.078,0,0,0,22.154,48c-3.632,0-6.556,3.628-6.556,8.076a10.168,10.168,0,0,0,.152,1.841C10.3,57.59,5.47,54.373,2.228,49.472a9.6,9.6,0,0,0-.9,4.081,8.706,8.706,0,0,0,2.914,6.71,5.581,5.581,0,0,1-2.964-.994v.089c0,3.924,2.274,7.183,5.256,7.934a5.4,5.4,0,0,1-1.72.266,4.749,4.749,0,0,1-1.242-.138c.85,3.2,3.262,5.548,6.13,5.625A11.716,11.716,0,0,1,1.57,76.487,10.014,10.014,0,0,1,0,76.377,16.064,16.064,0,0,0,10.064,80c12.072,0,18.672-12.308,18.672-22.976,0-.357-.01-.7-.024-1.044A15.143,15.143,0,0,0,32,51.788Z" transform="translate(0 -48)" fill="#000"/>
</svg>
